<svg width="65" height="65" viewBox="0 0 65 65" fill="none" xmlns="http://www.w3.org/2000/svg">
<path d="M45.5 32.5L40.95 27.95L35.75 33.15L35.75 19.5L29.25 19.5L29.25 33.15L24.05 27.95L19.5 32.5L32.5 45.5L45.5 32.5ZM65 32.5C65 36.9958 64.1463 41.2208 62.439 45.175C60.7317 49.1292 58.4166 52.5687 55.4937 55.4937C52.5687 58.4187 49.1292 60.7338 45.175 62.439C41.2208 64.1442 36.9958 64.9978 32.5 65C28.0042 65 23.7792 64.1463 19.825 62.439C15.8708 60.7317 12.4312 58.4166 9.50625 55.4937C6.58125 52.5688 4.26617 49.1292 2.561 45.175C0.855833 41.2208 0.00216544 36.9958 -1.42062e-06 32.5C-1.61714e-06 28.0042 0.853665 23.7792 2.561 19.825C4.26833 15.8708 6.58341 12.4313 9.50625 9.50625C12.4312 6.58125 15.8708 4.26509 19.825 2.55776C23.7792 0.850425 28.0042 -0.00216034 32.5 6.20877e-06C36.9958 6.01226e-06 41.2208 0.853666 45.175 2.561C49.1292 4.26834 52.5687 6.58342 55.4937 9.50625C58.4187 12.4312 60.7349 15.8708 62.4422 19.825C64.1496 23.7792 65.0022 28.0042 65 32.5ZM58.5 32.5C58.5 25.2417 55.9812 19.0938 50.9437 14.0563C45.9062 9.01875 39.7583 6.5 32.5 6.5C25.2417 6.5 19.0937 9.01876 14.0562 14.0563C9.01875 19.0938 6.5 25.2417 6.5 32.5C6.5 39.7583 9.01875 45.9063 14.0562 50.9438C19.0937 55.9812 25.2417 58.5 32.5 58.5C39.7583 58.5 45.9062 55.9812 50.9437 50.9437C55.9812 45.9062 58.5 39.7583 58.5 32.5Z" fill="#EBB96B"/>
</svg>
