<svg width="124" height="354" viewBox="0 0 124 354" fill="none" xmlns="http://www.w3.org/2000/svg">
<path opacity="0.2" d="M14.4 354C10.4 354 7.06667 352.667 4.4 350C1.73333 347.6 0.4 344.667 0.4 341.2C0.4 337.733 1.46667 334.667 3.6 332C6 329.6 9.06667 328.4 12.8 328.4H32.8C38.6667 328.4 42.9333 326.933 45.6 324C48.5333 321.067 50 316.533 50 310.4V218.8C50 210.8 51.6 203.6 54.8 197.2C58 190.533 62.2667 185.333 67.6 181.6C73.2 177.867 79.4667 176 86.4 176V177.6C79.4667 177.6 73.2 175.733 67.6 172C62.2667 168.267 58 163.2 54.8 156.8C51.6 150.133 50 142.8 50 134.8V43.6C50 37.4667 48.5333 32.9333 45.6 30C42.9333 27.0667 38.6667 25.6 32.8 25.6H12.8C9.06667 25.6 6 24.4 3.6 22C1.46667 19.3333 0.4 16.2667 0.4 12.8C0.4 9.06665 1.73333 5.99999 4.4 3.59998C7.06667 1.19998 10.4 -1.71661e-05 14.4 -1.71661e-05H42.4C50.9333 -1.71661e-05 58.1333 1.59999 64 4.79999C70.1333 7.73332 74.6667 12.2667 77.6 18.4C80.8 24.5333 82.4 32 82.4 40.8V131.6C82.4 142.533 84.5333 150.533 88.8 155.6C93.3333 160.667 101.2 163.333 112.4 163.6C116.133 163.867 118.933 165.333 120.8 168C122.933 170.4 124 173.333 124 176.8C124 180.267 122.933 183.333 120.8 186C118.933 188.667 116.133 190 112.4 190C101.2 190.267 93.3333 192.933 88.8 198C84.5333 203.067 82.4 211.2 82.4 222.4V313.2C82.4 326.533 78.9333 336.667 72 343.6C65.3333 350.533 55.4667 354 42.4 354H14.4Z" fill="#F36E49"/>
</svg>
