<svg width="125" height="354" viewBox="0 0 125 354" fill="none" xmlns="http://www.w3.org/2000/svg">
<path opacity="0.2" d="M82.8 354C74 354 66.5333 352.4 60.4 349.2C54.5333 346.267 50 341.733 46.8 335.6C43.8667 329.467 42.4 322 42.4 313.2V222.4C42.4 211.2 40.1333 203.067 35.6 198C31.3333 192.933 23.6 190.267 12.4 190C8.93333 190 6.13333 188.667 4 186C1.86667 183.333 0.800001 180.267 0.800001 176.8C0.800001 173.067 1.86667 170 4 167.6C6.13333 165.2 8.93333 163.867 12.4 163.6C23.6 163.333 31.3333 160.667 35.6 155.6C40.1333 150.533 42.4 142.533 42.4 131.6V40.8C42.4 27.4666 45.8667 17.3333 52.8 10.4C59.7333 3.46665 69.7333 -1.71661e-05 82.8 -1.71661e-05H110.4C114.4 -1.71661e-05 117.733 1.19998 120.4 3.59998C123.067 5.99999 124.4 9.06665 124.4 12.8C124.4 16.2667 123.2 19.3333 120.8 22C118.667 24.4 115.733 25.6 112 25.6H92C86.4 25.6 82.1333 27.0667 79.2 30C76.2667 32.9333 74.8 37.4667 74.8 43.6V134.8C74.8 142.8 73.2 150.133 70 156.8C66.8 163.2 62.5333 168.267 57.2 172C51.8667 175.733 45.6 177.6 38.4 177.6V176C45.6 176 51.8667 177.867 57.2 181.6C62.5333 185.333 66.8 190.533 70 197.2C73.2 203.6 74.8 210.8 74.8 218.8V310.4C74.8 316.533 76.2667 321.067 79.2 324C82.1333 326.933 86.4 328.4 92 328.4H112C115.733 328.4 118.667 329.6 120.8 332C123.2 334.667 124.4 337.733 124.4 341.2C124.4 344.667 123.067 347.6 120.4 350C117.733 352.667 114.4 354 110.4 354H82.8Z" fill="#F36E49"/>
</svg>
