<?xml version="1.0" encoding="UTF-8"?><svg id="Layer_2" xmlns="http://www.w3.org/2000/svg" viewBox="0 0 84.97 76.2"><defs><style>.cls-1{fill:#f3edeb;}</style></defs><g id="Layer_1-2"><path class="cls-1" d="m21.22,71.16c-4.21,0-7.91-1-11.1-3.01-3.19-2.01-5.68-4.9-7.45-8.69-1.78-3.78-2.66-8.21-2.66-13.28s.89-9.64,2.66-13.32c1.78-3.68,4.26-6.55,7.45-8.59,3.19-2.04,6.89-3.06,11.1-3.06s7.85,1.04,10.91,3.11c3.06,2.07,5.08-19.3,5.08-19.3,0-1.64.43-2.9,1.28-3.75.85-.85,2.07-1.28,3.65-1.28s2.81.43,3.7,1.28c.89.86,1.33,2.11,1.33,3.75v66.13c0,1.58-.43,2.81-1.28,3.7-.86.89-2.07,1.33-3.65,1.33s-2.8-.44-3.65-1.33c-.86-.89-3.31-9.05-6.37-6.91-3.06,2.14-6.73,3.21-11.01,3.21Zm2.57-7.7c2.7,0,5.07-.66,7.11-1.97,2.04-1.32,3.63-3.26,4.79-5.82,1.15-2.57,1.73-5.72,1.73-9.48,0-5.66-1.25-9.93-3.75-12.83-2.5-2.89-5.79-4.34-9.87-4.34-2.76,0-5.17.64-7.21,1.92-2.04,1.28-3.64,3.21-4.79,5.77-1.15,2.57-1.73,5.72-1.73,9.47,0,5.59,1.25,9.87,3.75,12.83,2.5,2.96,5.82,4.44,9.97,4.44Z"/><path class="cls-1" d="m68.83,67.77c-4.94,0-9.2-1.04-12.78-3.11-3.59-2.07-6.37-5-8.34-8.78-1.97-3.78-2.96-8.24-2.96-13.37,0-3.82.56-7.25,1.68-10.31,1.12-3.06,2.71-5.64,4.79-7.75,2.07-2.1,4.6-3.73,7.6-4.88,2.99-1.15,6.33-1.73,10.02-1.73,2.3,0,4.72.35,7.25,1.04,2.53.69,4.89,1.83,7.06,3.41.85.53,1.4,1.17,1.63,1.92.23.76.26,1.53.1,2.32-.17.79-.53,1.46-1.08,2.02-.56.56-1.23.89-2.02.99-.79.1-1.65-.11-2.57-.64-1.58-1.12-3.19-1.92-4.84-2.42-1.65-.49-3.22-.74-4.74-.74-2.37,0-4.46.38-6.27,1.14-1.81.76-3.34,1.84-4.59,3.26-1.25,1.42-2.19,3.18-2.81,5.28-.63,2.11-.94,4.51-.94,7.21,0,5.4,1.27,9.62,3.8,12.68,2.53,3.06,6.13,4.59,10.81,4.59,1.51,0,3.09-.23,4.74-.69,1.64-.46,3.26-1.25,4.84-2.37.92-.53,1.78-.72,2.57-.59.79.13,1.43.48,1.92,1.04.49.56.82,1.22.99,1.97.16.76.11,1.53-.15,2.32-.26.79-.82,1.45-1.68,1.97-2.11,1.51-4.39,2.6-6.86,3.26s-4.85.99-7.16.99Z"/><circle class="cls-1" cx="31.74" cy="40.63" r="6.01"/><circle class="cls-1" cx="73.02" cy="37.24" r="6.01"/></g></svg>