<?xml version="1.0" encoding="UTF-8"?><svg id="Layer_2" xmlns="http://www.w3.org/2000/svg" viewBox="0 0 121.97 71.85"><defs><style>.cls-1{fill:#f3edeb;}</style></defs><g id="Layer_1-2"><g><path class="cls-1" d="m23.04,70.67H3.53c-1.93,0-3.5-1.57-3.5-3.5l-.03-17.32h23.13c7.22,0,15.65-3.65,15.65-13.93,0-6.69-4.11-13.84-15.65-13.84h-.93v25.66h-7v-29.16c0-1.93,1.57-3.5,3.5-3.5h4.43c13.55,0,22.65,8.38,22.65,20.84s-9.31,20.93-22.65,20.93H7.03v6.82h16.01c18.2,0,30.91-11.49,30.91-27.93s-12.42-27.57-30.91-27.57H7.03v39.46H.03V4.67C.03,2.74,1.6,1.17,3.53,1.17h19.51c22.32,0,37.91,14.21,37.91,34.57s-15.94,34.93-37.91,34.93Z"/><path class="cls-1" d="m88.21,71.85c-20.18,0-33.21-14.1-33.21-35.92S68.07,0,88.3,0c15.79,0,23.61,8.53,27.39,15.68.81,1.53.38,3.41-1.01,4.44l-10.93,8.13c-.77.58-1.75.81-2.7.64-.95-.17-1.79-.72-2.32-1.53-3.12-4.77-5.88-6.46-10.53-6.46-2.75,0-11.13,0-11.13,15.11,0,6.45,1.15,15.01,11.13,15.01,4.45,0,7.13-1.53,10.26-5.86.54-.75,1.37-1.26,2.29-1.41.92-.14,1.86.08,2.61.63l11.02,8.04c1.49,1.09,1.88,3.14.9,4.7-6.18,9.77-15.29,14.72-27.07,14.72Zm.09-64.85c-16.47,0-26.3,10.81-26.3,28.92s9.8,28.92,26.21,28.92c8.21,0,14.54-2.89,19.26-8.8l-5.54-4.04c-3.84,4.19-8.09,6.03-13.72,6.03-11.52,0-18.13-8.02-18.13-22.01s6.61-22.11,18.13-22.11c7,0,11.21,3.02,14.2,6.62l5.55-4.13c-4.3-6.24-10.9-9.4-19.66-9.4Z"/><path class="cls-1" d="m118.97,51.78c-.58,0-1.15-.17-1.65-.5l-17.76-11.72c-.82-.54-1.33-1.46-1.35-2.45s.45-1.92,1.25-2.5l17.76-12.72c.91-.66,2.12-.74,3.12-.23,1,.51,1.63,1.54,1.63,2.67v24.45c0,1.1-.61,2.12-1.58,2.64-.44.24-.93.36-1.42.36Z"/></g></g></svg>