<?xml version="1.0" encoding="UTF-8"?><svg id="Layer_2" xmlns="http://www.w3.org/2000/svg" viewBox="0 0 158.46 145.51"><defs><style>.cls-1{fill:#f3edeb;}</style></defs><g id="Layer_1-2"><g><path class="cls-1" d="m135.7,106.98c-6,2.18-11.47,2.39-16.43.69-.2,2.41-.55,4.67-1.11,6.76-.82,3.07-2.05,5.72-3.65,7.98-.31.44-.62.9-.96,1.31-2.09,2.51-4.69,4.47-7.78,5.87-3.1,1.4-6.7,2.16-10.8,2.28-2.62.08-5.37-.27-8.24-1.05-2.87-.77-5.71-2.09-8.5-3.95-1.62-.87-3.11-1.19-4.48-.98-1.36.21-2.51.81-3.45,1.81-.94,1-1.53,2.18-1.78,3.56-.24,1.38-.15,2.71.29,4.01.44,1.3,1.41,2.38,2.92,3.25,3.84,2.63,7.97,4.47,12.39,5.54,4.42,1.07,8.63,1.55,12.61,1.43,6.38-.18,12.14-1.35,17.26-3.49,5.13-2.14,9.43-5.09,12.92-8.84,2.94-3.17,5.24-6.95,6.97-11.26.32-.79.65-1.57.93-2.4,1.34-4.02,2.12-8.4,2.35-13.12-.49.21-.98.42-1.47.6Z"/><circle class="cls-1" cx="135.21" cy="42.57" r="10.41"/><circle class="cls-1" cx="55.43" cy="71.6" r="10.41"/><path class="cls-1" d="m86.01,98.01c-6.01-5.5-10.7-12.86-14.05-22.07-2.49-6.85-3.74-13.38-3.73-19.61,0-6.22,1.19-11.9,3.53-17.03.43-.93.9-1.84,1.4-2.73-.69.21-1.38.42-2.05.66-1.07.39-2.08.83-3.1,1.27L56.18,5.94c-.97-2.68-2.44-4.45-4.39-5.32-1.95-.87-4.22-.83-6.79.1s-4.3,2.36-5.18,4.25c-.89,1.9-.84,4.19.13,6.87,0,0,9.37,35.99,3.16,34.43-6.21-1.56-12.74-1.09-19.6,1.4s-12.28,6.35-16.26,11.56c-3.99,5.21-6.33,11.34-7.04,18.4-.71,7.05.48,14.81,3.56,23.27,3,8.25,7.07,14.93,12.2,20.03,5.13,5.11,10.89,8.35,17.28,9.72,6.38,1.38,13,.82,19.86-1.68,6.96-2.53,12.3-6.45,16.02-11.74,3.71-5.29,9.44-1.98,11.36-1.04,1.92.94,4.16.94,6.73,0s4.29-2.38,5.16-4.33c.86-1.95.83-4.22-.1-6.79l-1.1-3.03c-1.78-1.2-3.5-2.53-5.14-4.04Zm-18.56-2.83c-.35,4.86-1.8,8.97-4.34,12.32-2.54,3.35-6.01,5.83-10.4,7.42-6.75,2.46-13.04,2.02-18.86-1.32-5.83-3.34-10.39-9.56-13.71-18.67-2.22-6.1-3.16-11.59-2.8-16.45.35-4.86,1.81-8.94,4.37-12.24,2.56-3.3,6.09-5.77,10.59-7.4,6.64-2.42,12.85-2.01,18.64,1.22,5.79,3.23,10.36,9.46,13.71,18.67,2.22,6.11,3.16,11.59,2.8,16.45Z"/><path class="cls-1" d="m136.59,98.59c-8.04,2.92-15.59,3.76-22.65,2.51-7.07-1.25-13.33-4.37-18.78-9.36-5.45-4.99-9.7-11.66-12.75-20.02-2.26-6.21-3.39-12.14-3.38-17.79,0-5.64,1.08-10.79,3.2-15.45,2.13-4.65,5.28-8.81,9.48-12.46,4.19-3.65,9.28-6.56,15.29-8.75,3.75-1.36,7.89-2.23,12.42-2.61,4.53-.37,9.04.08,13.51,1.36,1.7.35,2.97,1.08,3.79,2.17.82,1.1,1.33,2.33,1.53,3.72.2,1.38,0,2.7-.57,3.94-.58,1.24-1.48,2.18-2.71,2.81-1.23.63-2.75.79-4.56.48-3.23-.88-6.34-1.24-9.31-1.07-2.97.17-5.69.71-8.15,1.6-3.86,1.4-7.03,3.26-9.53,5.56-2.5,2.3-4.35,4.98-5.54,8.02-1.2,3.05-1.68,6.47-1.45,10.26.23,3.8,1.14,7.89,2.74,12.29,3.2,8.79,7.76,14.92,13.7,18.4,5.94,3.48,12.71,3.84,20.31,1.07,2.46-.9,4.9-2.21,7.3-3.93,2.4-1.72,4.56-3.97,6.47-6.72,1.19-1.4,2.46-2.23,3.83-2.48,1.36-.25,2.61-.07,3.75.55,1.14.62,2.06,1.5,2.78,2.63.72,1.14,1.09,2.42,1.13,3.86.04,1.44-.48,2.85-1.56,4.21-2.53,3.71-5.61,6.83-9.24,9.37-3.63,2.53-7.32,4.48-11.06,5.85Z"/></g></g></svg>