<svg width="99" height="91" viewBox="0 0 99 91" fill="none" xmlns="http://www.w3.org/2000/svg">
<g clip-path="url(#clip0_1_9)">
<path d="M11.3272 68.7555C9.96795 68.7555 8.83523 68.3062 7.92905 67.6321C7.24941 66.958 6.79633 65.8346 6.79633 64.2617V16.4025C6.79633 15.0543 7.24941 13.9309 7.92905 13.0321C8.60868 12.358 9.74141 11.9086 11.3272 11.9086H26.9588C36.4737 11.9086 43.7231 14.3802 48.7071 19.0988C53.9176 24.042 56.4096 31.0074 56.4096 40.2197C56.4096 44.7136 55.73 48.758 54.3707 52.3531C53.0114 55.9481 51.1991 58.8691 48.7071 61.3407C46.2151 63.8123 43.0435 65.6099 39.4187 66.7333C35.794 68.0815 31.4897 68.5308 26.7323 68.5308H11.3272V68.7555ZM15.1785 61.7901H26.5057C30.1304 61.7901 33.0755 61.3407 35.794 60.442C38.5126 59.5432 40.5515 58.195 42.3638 56.3975C44.1762 54.6 45.5354 52.3531 46.4416 49.6568C47.3478 46.9605 47.8009 43.8148 47.8009 40.2197C47.8009 33.0296 45.9885 27.637 42.3638 24.2667C38.7391 20.6716 33.5286 18.8741 26.5057 18.8741H15.1785V61.7901Z" fill="white"/>
<path d="M76.119 69.4296C70.2289 69.4296 65.4714 68.3062 61.1671 65.8346C57.0893 63.363 53.9176 59.9926 51.6522 55.7234C49.3868 51.4543 48.254 46.0617 48.254 40.2197C48.254 35.7259 48.9337 31.6815 50.0664 28.0864C51.1991 24.4913 53.0115 21.3457 55.5035 18.8741C57.7689 16.4025 60.714 14.3802 64.1122 13.0321C67.9634 11.9086 71.8147 11.2346 76.119 11.2346C79.2906 11.2346 82.4623 11.6839 85.4073 12.5827C88.3524 13.4815 90.8444 14.6049 93.1099 16.4025C94.016 17.0765 94.6957 17.7506 94.9222 18.6494C95.1488 19.0988 95.1488 19.9975 94.9222 20.6716C94.6957 21.3457 94.4691 22.0197 93.7895 22.4691C93.1099 22.9185 92.6568 23.3679 91.7506 23.3679C90.8444 23.3679 89.9382 23.1432 89.0321 22.4691C87.2197 21.121 85.1808 20.2222 83.1419 19.5481C81.103 18.8741 78.611 18.6494 76.3456 18.6494C72.2678 18.6494 68.8696 19.5481 65.9245 21.121C63.206 22.9185 60.9405 25.1654 59.5813 28.5358C58.222 31.6815 57.3158 35.7259 57.3158 40.2197C57.3158 44.9383 57.9954 48.758 59.5813 52.1284C60.9405 55.2741 63.206 57.7457 65.9245 59.5432C68.643 61.3407 72.2678 62.0148 76.3456 62.0148C78.8376 62.0148 81.103 61.7901 83.1419 61.116C85.4073 60.442 87.4463 59.5432 89.2586 58.1951C90.1648 57.521 91.071 57.2963 91.9771 57.2963C92.6568 57.2963 93.3364 57.521 94.016 58.1951C94.4691 58.6444 94.9222 59.3185 95.1488 59.9926C95.3753 60.6667 95.3753 61.5654 95.1488 62.2395C94.9222 62.9136 94.4691 63.5876 93.563 64.2617C91.2975 66.0593 88.8055 67.4074 85.6339 68.3062C82.4623 69.2049 79.5172 69.4296 76.119 69.4296Z" fill="white"/>
<path d="M85.6339 40.2198C93.0158 40.2198 99 34.2845 99 26.963C99 19.6414 93.0158 13.7062 85.6339 13.7062C78.252 13.7062 72.2677 19.6414 72.2677 26.963C72.2677 34.2845 78.252 40.2198 85.6339 40.2198Z" fill="white"/>
<path d="M37.1533 41.5679C44.5352 41.5679 50.5194 35.6326 50.5194 28.3111C50.5194 20.9896 44.5352 15.0543 37.1533 15.0543C29.7714 15.0543 23.7872 20.9896 23.7872 28.3111C23.7872 35.6326 29.7714 41.5679 37.1533 41.5679Z" fill="white"/>
</g>
<defs>
<clipPath id="clip0_1_9">
<rect width="99" height="91" fill="white"/>
</clipPath>
</defs>
</svg>
